<svg width="108" height="196" viewBox="0 0 108 196" fill="none" xmlns="http://www.w3.org/2000/svg">
<path d="M107.351 108.92C109.716 103.384 105.051 102 102.423 102H13.7167C8.98568 102 6.48877 105.295 5.83169 106.943C-16.2463 173.371 29.7404 193.933 54.2541 195.91C56.1473 196.062 62.1391 196.898 67.0672 188.002L87.7653 148.461L102.423 118.805L107.351 108.92Z" fill="#CAC9F9"/>
<path d="M0.649149 87.0803C-1.71634 92.6161 2.94894 94 5.57727 94L94.2834 94C99.0143 94 101.511 90.7049 102.168 89.0574C124.246 22.6286 78.2596 2.06735 53.7459 0.0903056C51.8527 -0.0623891 45.8609 -0.89822 40.9328 7.99849L20.2347 47.5394L5.57727 77.1951L0.649149 87.0803Z" fill="#E4E3FF"/>
</svg>
